<svg id="aparat-preloader-logo" xmlns="http://www.w3.org/2000/svg" viewBox="0 0 69 69">
    <g fill="none" fill-rule="evenodd">
        <path id="logo-outer"
              d="M29.81 2.39 23.51.72C17.862943-.77904572 12.06978 2.58313791 10.57 8.23L9 14.16C14.182586 7.72726376 21.626533 3.51701609 29.81 2.39ZM2.22 39.69l-1.54 5.8c-1.499046 5.647057 1.863138 11.4402203 7.51 12.94l6 1.6C7.785492 54.9953325 3.511889 47.7334212 2.22 39.69ZM60.78 10.61 54 8.82c6.869123 5.2838778 11.335137 13.0994019 12.4 21.7l1.85-7c1.48264-5.62517-1.854238-11.3921164-7.47-12.91ZM39 66.62l6.45 1.71c5.647057 1.4990457 11.44022-1.8631379 12.94-7.51l1.82-6.84C55.083976 60.8260117 47.460467 65.3692061 39 66.62Z"
              fill="#484b62"></path>
        <path id="logo-inner"
              d="M34.49 4.9c-11.984216 0-22.78839 7.2191177-27.374551 18.2910899-4.586161 11.0719722-2.051144 23.8163634 6.422977 32.290484s21.218512 11.0091377 32.290484 6.4229766C56.900882 57.3183895 64.12 46.5142163 64.12 34.53c0-16.3641971-13.265803-29.63-29.63-29.63ZM17.71 19.68c.884678-4.587113 5.319988-7.5888936 9.907284-6.7051667 4.587296.883727 7.589996 5.3184147 6.70722 9.905894C33.441727 27.4682066 29.007662 30.4718254 24.42 29.59c-2.204291-.4237016-4.149842-1.7060398-5.408331-3.5647025C17.75318 24.1666348 17.284928 21.8840271 17.71 19.68ZM30 45.28c-.884678 4.587113-5.319988 7.5888936-9.907284 6.7051667-4.587296-.883727-7.589996-5.3184147-6.70722-9.905894C14.268273 37.4917934 18.702338 34.4881746 23.29 35.37c2.204291.4237016 4.149842 1.7060398 5.408331 3.5647025C29.95682 40.7933652 30.425072 43.0759729 30 45.28Zm3.59-6.85c-2.035853-.3938428-3.368553-2.3615244-2.978861-4.3981761.389692-2.0366516 2.354653-3.3733599 4.392095-2.9878198C37.040676 31.4295442 38.381386 33.3917767 38 35.43c-.383941 2.0406248-2.349333 3.3837173-4.39 3h-.02Zm17.65 10.94c-.884678 4.587113-5.319988 7.5888936-9.907284 6.7051667-4.587296-.883727-7.589996-5.3184147-6.70722-9.905894C35.508273 41.5817934 39.942338 38.5781746 44.53 39.46c2.207973.4190968 4.158453 1.6995088 5.421057 3.5587072C51.213661 44.8779055 51.684614 47.1630814 51.26 49.37h-.02Zm-5.6-15.68c-4.587113-.8846776-7.588894-5.3199876-6.705167-9.9072838.883727-4.5872963 5.318415-7.5899961 9.905894-6.7072199 4.58748.8827762 7.591098 5.3168415 6.709273 9.9045037-.887386 4.5769205-5.310367 7.5732777-9.89 6.7l-.02.01Z"
              fill="#df0f50" fill-rule="nonzero"></path>
    </g>
</svg>